<svg width="237" height="237" viewBox="0 0 237 237" fill="none" xmlns="http://www.w3.org/2000/svg">
<path d="M197 0C219.091 2.77032e-06 237 17.9086 237 40V197C237 219.091 219.091 237 197 237H40C17.9086 237 8.61811e-07 219.091 0 197V40C2.77068e-06 17.9086 17.9086 8.61698e-07 40 0H197ZM189.593 133.76C186.246 133.784 183.649 134.733 181.803 136.606C179.958 138.666 179.048 141.463 179.073 144.997L179.08 147.011C179.208 164.681 173.915 178.669 163.204 188.978C152.307 199.287 137.56 204.509 118.964 204.644C99.996 204.781 85.1752 199.866 74.5029 189.898C63.8309 179.931 58.4294 165.927 58.2988 147.885L58.293 145.871C58.2674 142.337 57.3177 139.553 55.4434 137.521C53.3844 135.675 50.7736 134.764 47.6123 134.787C44.2652 134.811 41.7617 135.76 40.1016 137.632C38.2568 139.691 37.3465 142.488 37.3721 146.022L37.373 147.198C37.4847 162.636 40.9285 176.005 47.7051 187.303C54.297 198.788 63.7519 207.554 76.0693 213.604C88.2011 219.654 102.542 222.62 119.093 222.5C135.643 222.38 150.033 219.207 162.262 212.98C174.49 206.754 183.91 197.85 190.521 186.27C196.948 174.876 200.106 161.461 199.994 146.022V144.846C199.969 141.312 199.018 138.529 197.144 136.496C195.271 134.65 192.754 133.737 189.593 133.76ZM47.3975 100.669C40.5505 100.669 35 106.221 35 113.069C35 119.918 40.5505 125.47 47.3975 125.47C54.2445 125.47 59.7949 119.918 59.7949 113.069C59.7949 106.221 54.2444 100.669 47.3975 100.669ZM190.212 100.669C183.365 100.669 177.814 106.221 177.814 113.069C177.814 119.918 183.365 125.47 190.212 125.47C197.059 125.47 202.61 119.918 202.61 113.069C202.61 106.221 197.059 100.669 190.212 100.669ZM190.46 14C187.299 14 184.788 15.0233 182.929 17.0693C181.069 18.9294 180.14 21.6262 180.14 25.1602L180.072 80.6934C180.072 84.2275 181.002 87.0184 182.861 89.0645C184.721 90.9245 187.232 91.8545 190.394 91.8545C193.741 91.8544 196.344 90.831 198.203 88.7852C200.063 86.7391 200.993 84.0415 200.993 80.6934L201.061 25.1602C201.06 21.8122 200.13 19.1154 198.271 17.0693C196.411 15.0233 193.807 14 190.46 14Z" fill="currentColor"/>
</svg>
