<svg width="849" height="237" viewBox="0 0 849 237" fill="none" xmlns="http://www.w3.org/2000/svg">
<path d="M701.262 236.405C698.202 236.405 695.772 235.505 693.972 233.705C692.172 231.725 691.272 229.025 691.272 225.605V115.444C691.272 100.504 694.422 87.5441 700.722 76.5641C707.202 65.404 716.382 56.8541 728.262 50.9141C740.142 44.9741 754.092 42.0041 770.112 42.0041C786.132 42.0041 799.992 44.9741 811.692 50.9141C823.572 56.8541 832.662 65.404 838.962 76.5641C845.442 87.5441 848.682 100.504 848.682 115.444V225.605C848.682 229.025 847.782 231.725 845.982 233.705C844.362 235.505 841.932 236.405 838.692 236.405C835.632 236.405 833.112 235.505 831.132 233.705C829.332 231.725 828.432 229.025 828.432 225.605V114.634C828.432 97.1743 823.302 83.584 813.042 73.864C802.782 64.144 788.472 59.2841 770.112 59.2841C752.112 59.2841 737.802 64.2341 727.182 74.1341C716.742 84.0341 711.522 97.5343 711.522 114.634V225.605C711.522 229.025 710.622 231.725 708.822 233.705C707.022 235.505 704.502 236.405 701.262 236.405Z" fill="currentColor"/>
<path d="M646.104 42.0041C649.164 42.0041 651.594 42.9941 653.394 44.9741C655.194 46.7741 656.094 49.3841 656.094 52.8041V86.554C656.094 101.854 653.214 115.714 647.454 128.134C641.874 140.374 633.864 150.275 623.424 157.835C612.984 165.395 601.014 169.985 587.514 171.605V225.605C587.514 229.025 586.614 231.725 584.814 233.705C583.014 235.505 580.494 236.405 577.254 236.405C574.194 236.405 571.764 235.505 569.964 233.705C568.164 231.725 567.264 229.025 567.264 225.605V171.605C553.224 170.165 540.985 165.755 530.545 158.375C520.285 150.995 512.365 141.184 506.785 128.944C501.205 116.704 498.415 102.574 498.415 86.554V52.8041C498.415 49.3841 499.315 46.7741 501.115 44.9741C502.915 42.9941 505.345 42.0041 508.405 42.0041C511.645 42.0041 514.165 42.9941 515.965 44.9741C517.765 46.7741 518.665 49.3841 518.665 52.8041V87.364C518.665 108.604 523.795 125.164 534.055 137.044C544.495 148.924 558.894 154.865 577.254 154.865C595.434 154.865 609.744 148.924 620.184 137.044C630.624 124.984 635.844 108.424 635.844 87.364V52.8041C635.844 49.3841 636.744 46.7741 638.544 44.9741C640.524 42.9941 643.044 42.0041 646.104 42.0041Z" fill="currentColor"/>
<path d="M443.099 236.405C440.039 236.405 437.609 235.505 435.809 233.705C434.009 231.725 433.109 229.025 433.109 225.605V52.8041C433.109 49.3841 434.009 46.7741 435.809 44.9741C437.609 42.9941 440.039 42.0041 443.099 42.0041C446.339 42.0041 448.859 42.9941 450.659 44.9741C452.459 46.9541 453.359 49.5641 453.359 52.8041V225.605C453.359 228.845 452.459 231.455 450.659 233.435C448.859 235.415 446.339 236.405 443.099 236.405Z" fill="currentColor"/>
<path d="M292.355 236.405C274.175 236.405 257.794 232.445 243.214 224.525C228.634 216.425 217.114 204.995 208.654 190.235C200.374 175.475 196.234 158.465 196.234 139.205C196.234 119.765 200.374 102.754 208.654 88.174C217.114 73.414 228.634 62.0741 243.214 54.1541C257.794 46.0541 274.175 42.0041 292.355 42.0041C310.535 42.0041 326.915 46.0541 341.495 54.1541C356.075 62.0741 367.505 73.414 375.785 88.174C384.245 102.754 388.475 119.765 388.475 139.205C388.475 158.465 384.245 175.475 375.785 190.235C367.505 204.995 356.075 216.425 341.495 224.525C326.915 232.445 310.535 236.405 292.355 236.405ZM292.355 219.125C306.935 219.125 319.895 215.975 331.235 209.675C342.755 203.375 351.755 194.285 358.235 182.405C364.895 170.345 368.225 155.945 368.225 139.205C368.225 122.285 364.805 107.794 357.965 95.7341C351.305 83.6741 342.125 74.5841 330.425 68.4641C318.905 62.3441 306.035 59.2841 291.815 59.2841C277.415 59.2841 264.454 62.4341 252.934 68.7341C241.594 75.0341 232.684 84.2141 226.204 96.2741C219.724 108.334 216.484 122.645 216.484 139.205C216.484 155.945 219.724 170.345 226.204 182.405C232.864 194.285 241.864 203.375 253.204 209.675C264.724 215.975 277.775 219.125 292.355 219.125Z" fill="currentColor"/>
<path d="M149.4 151.022C152.46 151 154.896 151.883 156.709 153.67C158.524 155.637 159.443 158.33 159.468 161.75L159.468 162.889C159.576 177.828 156.52 190.811 150.299 201.836C143.9 213.043 134.782 221.659 122.946 227.684C111.109 233.71 97.1808 236.781 81.1612 236.897C65.1416 237.013 51.2605 234.143 39.5178 228.288C27.5952 222.434 18.4436 213.95 12.063 202.836C5.50377 191.903 2.17013 178.967 2.06207 164.027L2.06203 162.889C2.03729 159.469 2.91775 156.762 4.70338 154.769C6.31032 152.958 8.73372 152.04 11.9736 152.017C15.0336 151.994 17.56 152.876 19.553 154.662C21.3672 156.629 22.2868 159.322 22.3115 162.742L22.3174 164.691C22.4437 182.15 27.6719 195.703 38.0019 205.348C48.3319 214.994 62.6767 219.75 81.0362 219.617C99.0358 219.487 113.31 214.434 123.858 204.457C134.226 194.482 139.348 180.944 139.224 163.845L139.218 161.896C139.194 158.477 140.074 155.77 141.86 153.777C143.647 151.964 146.16 151.046 149.4 151.022Z" fill="currentColor"/>
<path d="M150.175 110.47C147.115 110.47 144.685 109.57 142.885 107.77C141.085 105.79 140.185 103.09 140.185 99.6699L140.25 10.8C140.25 7.38001 141.15 4.77001 142.95 2.97C144.75 0.99 147.18 0 150.24 0C153.48 0 156 0.99 157.8 2.97C159.6 4.95 160.5 7.56001 160.5 10.8L160.435 99.6699C160.435 102.91 159.535 105.52 157.735 107.5C155.935 109.48 153.415 110.47 150.175 110.47Z" fill="currentColor"/>
<path d="M162 131C162 137.627 156.627 143 150 143C143.373 143 138 137.627 138 131C138 124.373 143.373 119 150 119C156.627 119 162 124.373 162 131Z" fill="currentColor"/>
<path d="M24 131C24 137.627 18.6274 143 12 143C5.37258 143 0 137.627 0 131C0 124.373 5.37258 119 12 119C18.6274 119 24 124.373 24 131Z" fill="currentColor"/>
</svg>
